<?xml version="1.0" encoding="UTF-8"?>
<svg width="1987.1" height="613.7" version="1.1" viewBox="0 0 525.76 162.37" xmlns="http://www.w3.org/2000/svg" xmlns:osb="http://www.openswatchbook.org/uri/2009/osb" xmlns:xlink="http://www.w3.org/1999/xlink">
<g transform="translate(-54.807 -49.959)" display="none">
<rect x="3.2697e-6" y="51.235" width="529.92" height="196.78" fill-opacity="0"/>
<flowRoot fill="#000000" font-family="sans-serif" font-size="40px" letter-spacing="0px" word-spacing="0px" style="line-height:1.25" xml:space="preserve"><flowRegion><rect x="920" y="548.57" width="57.143" height="51.429"/></flowRegion><flowPara/></flowRoot>
<rect x="54.807" y="49.959" width="525.76" height="162.37" display="inline" fill="#162d4f" fill-opacity=".99608"/>
</g>
<g transform="translate(-54.807 -17.543)">
<g transform="translate(201.97 17.543)" stroke-width="1.2308">
<path d="m-80.079 73.447v-34.338c0-1.1077 0.86154-1.9692 1.9692-1.9692h34.338c1.1077 0 1.9692 0.86149 1.9692 1.9692v34.338c0 1.1077-0.86149 1.9692-1.9692 1.9692h-34.338c-1.1077 0-1.9692-0.86154-1.9692-1.9692zm3.9384-1.9692h30.4v-30.4h-30.4zm-44.184 41.723v-34.338c0-1.1077 0.86154-1.9692 1.9692-1.9692h34.338c1.1077 0 1.9692 0.86154 1.9692 1.9692v34.338c0 1.1077-0.86154 1.9692-1.9692 1.9692h-34.338c-1.1076 0-1.9692-0.86154-1.9692-1.9692zm3.9384-1.9692h30.4v-30.4h-30.4z" fill="#8fce4f"/>
<path d="m-119.93 62.37c-0.73845-0.73845-0.73845-1.9692 0-2.8307 0.73846-0.73845 1.9692-0.73845 2.8307 0l2.5846 2.5846v-9.9692c0-8.4922 6.8922-15.384 15.384-15.384h7.0153c1.1077 0 1.9692 0.86154 1.9692 1.9692 0 1.1077-0.86154 1.9692-1.9692 1.9692h-7.0153c-6.2769 0-11.446 5.1692-11.446 11.446v9.9692l2.5846-2.5846c0.73845-0.73845 1.9692-0.73845 2.8307 0 0.73845 0.73845 0.73845 1.9692 0 2.8307l-5.9076 5.9076c-0.36935 0.36934-0.86154 0.61537-1.3538 0.61537-0.49233 0-0.98462-0.24607-1.3538-0.61537zm77.292 27.323-5.9076-5.9076c-0.73845-0.73845-2.0923-0.73845-2.8307 0l-5.9076 5.9076c-0.73845 0.73846-0.73845 1.9692 0 2.8307 0.73845 0.73846 1.9692 0.73846 2.8307 0l2.5846-2.5846v9.9691c0 6.2769-5.1692 11.446-11.446 11.446h-7.0153c-1.1077 0-1.9692 0.86154-1.9692 1.9692 0 1.1077 0.86154 1.9692 1.9692 1.9692h7.0153c8.4922 0 15.384-6.8923 15.384-15.384v-9.9691l2.5846 2.5846c0.36934 0.36934 0.86154 0.61542 1.3538 0.61542 0.49228 0 0.98462-0.24608 1.3538-0.61542 0.86154-0.73845 0.86154-1.9692 0-2.8307z" fill="#162d4e" fill-opacity=".99608"/>
</g>
<g transform="translate(-7.1607 -34.291)">
<g fill="#8fce4f" aria-label="ANY">
<path d="m223.53 97.875-21.114 64.789v-0.0964q-0.57847 1.4462-1.639 2.4103-0.96413 0.8677-2.4103 0.8677-0.7713 0-1.5426-0.19282-0.67489-0.0964-1.4462-0.28924h0.0964q-5.4955-1.7354-4.0493-6.1704l21.982-66.814q0.48206-1.5426 1.639-2.6031 1.2534-1.0605 2.8924-1.2534 1.639-0.28924 3.1816-0.38565 1.5426-0.19282 2.4103-0.19282t2.4103 0.19282q1.5426 0.09641 3.1816 0.28924 1.3498 0.19282 2.6031 1.4462 1.3498 1.2534 2.0246 2.5067 5.3991 16.583 10.895 33.455 5.5919 16.776 10.991 33.359 1.3498 4.435-4.0493 6.1704-0.77129 0.19283-1.4462 0.28924-0.57847 0.19282-1.3498 0.19282-1.3498 0-2.5067-0.8677-1.0605-0.96413-1.5426-2.4103v0.0964zm7.2309 43.964q0 3.0852-2.2175 5.3027-2.1211 2.1211-5.2062 2.1211t-5.2063-2.1211q-2.1211-2.2175-2.1211-5.3027t2.1211-5.2063q2.1211-2.2175 5.2063-2.2175t5.2062 2.2175q2.2175 2.1211 2.2175 5.2063z"/>
<path d="m306.98 92.572q0-4.6278 5.6883-4.6278t5.6883 4.6278v66.524q0 3.3744-3.5672 4.917h0.0964q-1.5426 0.67489-3.278 1.0605t-3.3744 0.38565q-1.2534 0-2.6031-0.28924-1.3498-0.19282-2.6031-0.67489-1.1569-0.57847-2.2175-1.4462-0.96412-0.96412-1.5426-2.3139l-20.921-52.159-2.6031 0.28924v52.063q0 4.6278-5.7847 4.6278-5.6883 0-5.6883-4.6278v-66.428q0-3.9529 3.4708-5.3027 3.1816-1.2534 6.7488-1.2534 2.5067 0 5.0134 1.0605 2.6031 0.96412 3.9529 3.7601l20.825 52.255 2.6995-0.28923z"/>
<path d="m360.97 161.12q0 4.6278-5.6883 4.6278t-5.6883-4.6278v-25.646l-21.596-41.072q-0.57847-1.2534-0.57847-2.6031 0-2.796 3.278-4.1457h-0.0964q2.1211-0.7713 3.3744-0.7713 2.5067 0 3.8565 2.5067l17.547 32.973q1.9282-3.6637 4.1457-7.8094 2.2175-4.2421 4.435-8.5807 2.3139-4.3386 4.5314-8.5807 2.2175-4.2421 4.2421-8.0022 0.7713-1.1569 1.639-1.8318 0.96412-0.67488 2.3139-0.67488t3.1816 0.7713h-0.0964q3.3744 1.4462 3.3744 4.2421 0 0.57847-0.0964 1.2534-0.0964 0.57847-0.48206 1.2534-0.86771 1.7354-2.2175 4.2421-1.2534 2.5067-3.6637 7.0381-2.3139 4.435-6.074 11.666-3.7601 7.1345-9.6412 18.415z"/>
</g>
<g fill="#162d4f" fill-opacity=".99608" aria-label="gen">
<path d="m407.33 158.72q-2.5067 0-5.2062-0.86771-2.6031-0.86771-5.1098-2.5067-5.2063-3.3744-5.2063-11.377v-21.789q0-4.0493 1.3498-6.9417 1.4462-2.8924 3.8565-4.5314 2.5067-1.5426 5.1098-2.4103 2.6031-0.86771 5.1098-0.86771h16.197q2.4103 0 5.0134 1.0605 2.6031 1.0605 4.8206 2.6995 2.2175 1.8318 3.5672 4.8206t1.3498 6.7488v40.879q0 4.0493-1.3498 6.8453-1.2534 2.8924-3.5672 4.8206-2.2175 1.8318-4.8206 2.796-2.5067 1.0605-5.0134 1.0605h-16.197q-5.1098 0-10.316-2.9888-2.6995-1.5426-3.9529-3.9529-1.157-2.4103-1.157-5.5919v-1.1569q0-1.9282 1.2534-3.0852 1.2534-1.157 3.9529-1.157 5.3991 0.57847 5.3991 4.2421v1.0605q0 1.0605 1.4462 2.3139 1.5426 1.2534 5.1098 1.2534h12.052q3.5672 0 5.0134-2.0247 1.5426-2.0246 1.5426-4.5314v-40.686q0-2.4103-1.5426-4.3386-1.4462-2.0246-5.0134-2.0246h-12.052q-3.5672 0-5.1098 2.0246-1.4462 1.9282-1.4462 4.3386v20.343q0 2.4103 1.4462 4.5314 1.5426 2.0247 5.1098 2.0247h10.027q3.4708 0 3.4708 4.435 0 2.0247-0.86771 3.278-0.7713 1.2534-2.6031 1.2534z"/>
<path d="m461.72 150.04q0 2.3139 1.4462 4.3385 1.5426 2.0247 5.1098 2.0247h12.052q3.5672 0 5.0134-1.7354 1.5426-1.8318 1.5426-4.1457v-1.0605q0-4.5314 5.3027-4.5314t5.3027 4.5314v1.157q0 4.0493-1.3498 6.6524-1.2534 2.6031-3.8565 4.5314-5.1098 3.6637-10.22 3.6637h-16.197q-5.1098 0-9.9304-3.6637-2.3139-1.9282-3.5672-4.8206-1.2534-2.9888-1.2534-6.8453v-27.477q0-7.8094 4.8206-11.569 2.4103-1.7354 4.917-2.6995 2.6031-1.0605 5.0134-1.0605h16.197q2.3139 0 5.1098 0.96412 2.796 0.86771 5.2063 2.4103 2.3139 1.639 3.6637 4.5314 1.4462 2.8924 1.4462 6.8453v13.016q0 2.2175-1.3498 3.9529-1.2534 1.7354-4.7242 1.7354h-20.825q-3.4708 0-3.6637-4.5314 0-4.5314 3.6637-4.5314h16.39l-0.0964-8.9663q0-2.4103-1.5426-4.3386-1.4462-2.0246-5.0134-2.0246h-12.052q-3.5672 0-5.1098 2.0246-1.4462 1.9282-1.4462 4.3386z"/>
<path d="m520.29 161.42q0 4.6278-5.3027 4.6278t-5.3027-4.6278v-38.758q0-3.9529 1.2534-6.8453 1.2534-2.8924 3.9529-4.7242 5.1098-3.6637 10.22-3.6637h15.522q4.917 0 10.22 3.6637 5.2062 3.6637 5.2062 11.569v38.758q0 4.6278-5.3027 4.6278t-5.3027-4.6278v-37.89q0-2.5067-1.5426-4.8206l0.0964 0.0964q-1.2534-2.3139-5.1098-2.3139h-12.052q-3.9529 0-5.2062 2.3139-1.3498 2.0247-1.3498 4.7242z"/>
</g>
</g>
</g>
</svg>
