<svg xmlns="http://www.w3.org/2000/svg" xmlns:xlink="http://www.w3.org/1999/xlink" version="1.1" x="0px" y="0px" viewBox="0 0 100 100" enable-background="new 0 0 100 100" xml:space="preserve"><path d="M18.6,38.9c-0.6-0.6-0.6-1.6,0-2.3c0.6-0.6,1.6-0.6,2.3,0l2.1,2.1v-8.1c0-6.9,5.6-12.5,12.5-12.5h5.7c0.9,0,1.6,0.7,1.6,1.6  c0,0.9-0.7,1.6-1.6,1.6h-5.7c-5.1,0-9.3,4.2-9.3,9.3v8.1l2.1-2.1c0.6-0.6,1.6-0.6,2.3,0c0.6,0.6,0.6,1.6,0,2.3l-4.8,4.8  c-0.3,0.3-0.7,0.5-1.1,0.5s-0.8-0.2-1.1-0.5L18.6,38.9z M50.8,47.8V19.9c0-0.9,0.7-1.6,1.6-1.6h27.9c0.9,0,1.6,0.7,1.6,1.6v27.9  c0,0.9-0.7,1.6-1.6,1.6H52.4C51.5,49.4,50.8,48.7,50.8,47.8z M54,46.2h24.7V21.5H54V46.2z M81.4,61.1l-4.8-4.8  c-0.6-0.6-1.7-0.6-2.3,0l-4.8,4.8c-0.6,0.6-0.6,1.6,0,2.3c0.6,0.6,1.6,0.6,2.3,0l2.1-2.1v8.1c0,5.1-4.2,9.3-9.3,9.3h-5.7  c-0.9,0-1.6,0.7-1.6,1.6c0,0.9,0.7,1.6,1.6,1.6h5.7c6.9,0,12.5-5.6,12.5-12.5v-8.1l2.1,2.1c0.3,0.3,0.7,0.5,1.1,0.5s0.8-0.2,1.1-0.5  C82.1,62.8,82.1,61.8,81.4,61.1z M18.1,80.1V52.2c0-0.9,0.7-1.6,1.6-1.6h27.9c0.9,0,1.6,0.7,1.6,1.6v27.9c0,0.9-0.7,1.6-1.6,1.6  H19.7C18.8,81.7,18.1,81,18.1,80.1z M21.3,78.5H46V53.8H21.3V78.5z"></path></svg>